0
SECTION
2
HEADER
9
$INSUNITS
70
4
9
$ACADVER
1
AC1014
9
$HANDSEED
5
FFFF
0
ENDSEC
0
SECTION
2
TABLES
0
TABLE
2
VPORT
5
8
100
AcDbSymbolTable
0
ENDTAB
0
TABLE
2
LTYPE
5
5
100
AcDbSymbolTable
0
LTYPE
5
14
100
AcDbSymbolTableRecord
100
AcDbLinetypeTableRecord
2
BYBLOCK
70
0
0
LTYPE
5
15
100
AcDbSymbolTableRecord
100
AcDbLinetypeTableRecord
2
BYLAYER
70
0
0
ENDTAB
0
TABLE
2
LAYER
5
2
100
AcDbSymbolTable
70
2
0
LAYER
5
50
100
AcDbSymbolTableRecord
100
AcDbLayerTableRecord
2
0
70
0
6
CONTINUOUS
0
ENDTAB
0
TABLE
2
STYLE
5
3
100
AcDbSymbolTable
70
1
0
STYLE
5
11
100
AcDbSymbolTableRecord
100
AcDbTextStyleTableRecord
2
STANDARD
70
0
0
ENDTAB
0
TABLE
2
VIEW
5
6
100
AcDbSymbolTable
70
0
0
ENDTAB
0
TABLE
2
UCS
5
7
100
AcDbSymbolTable
70
0
0
ENDTAB
0
TABLE
2
APPID
5
9
100
AcDbSymbolTable
70
2
0
APPID
5
12
100
AcDbSymbolTableRecord
100
AcDbRegAppTableRecord
2
ACAD
70
0
0
ENDTAB
0
TABLE
2
DIMSTYLE
5
A
100
AcDbSymbolTable
70
1
0
ENDTAB
0
TABLE
2
BLOCK_RECORD
5
1
100
AcDbSymbolTable
70
1
0
BLOCK_RECORD
5
1F
100
AcDbSymbolTableRecord
100
AcDbBlockTableRecord
2
*MODEL_SPACE
0
BLOCK_RECORD
5
1B
100
AcDbSymbolTableRecord
100
AcDbBlockTableRecord
2
*PAPER_SPACE
0
ENDTAB
0
ENDSEC
0
SECTION
2
BLOCKS
0
BLOCK
5
20
100
AcDbEntity
100
AcDbBlockBegin
2
*MODEL_SPACE
0
ENDBLK
5
21
100
AcDbEntity
100
AcDbBlockEnd
0
BLOCK
5
1C
100
AcDbEntity
100
AcDbBlockBegin
2
*PAPER_SPACE
0
ENDBLK
5
1D
100
AcDbEntity
100
AcDbBlockEnd
0
ENDSEC
0
SECTION
2
ENTITIES
0
LWPOLYLINE
5
100
100
AcDbEntity
8
0
100
AcDbPolyline
90
32
70
1
43
0.0
10
46.249999999957758
20
89.000000000021004
42
0.41421356237297274
10
45.249999999958206
20
90.000000000021004
10
-45.250000000042299
20
90.000000000061462
42
0.4142135623732251
10
-46.250000000042739
20
89.000000000061462
10
-46.250000000095667
20
86.399999999977041
42
-1.0000015345314099
10
-53.750000000078018
20
86.400011509166873
10
-53.750000000042704
20
89.000000000065711
42
0.41421356237296497
10
-54.750000000042263
20
90.000000000065711
10
-89.250000000063082
20
89.999999999918543
10
-92.000000000041723
20
87.188888888895079
10
-92.000000000002018
20
-87.188888888909887
10
-89.25000000002278
20
-90.000000000021103
10
-54.750000000021814
20
-90.000000000067061
42
0.41421356237296758
10
-53.750000000022268
20
-89.000000000067104
10
-53.750000000062997
20
-86.399999999988779
42
-0.99999999999999989
10
-46.250000000063018
20
-86.400000000010266
10
-46.250000000022254
20
-89.000000000062698
42
0.41421356237323809
10
-45.250000000021799
20
-90.000000000062698
10
45.249999999978208
20
-90.000000000021018
42
0.41421356237297013
10
46.249999999977746
20
-89.000000000021018
10
46.249999999977717
20
-86.399999999998883
42
-0.99999999999999989
10
53.749999999977732
20
-86.399999999999736
10
53.749999999977732
20
-89.000000000016655
42
0.41421356237323809
10
54.749999999978193
20
-90.000000000016655
10
89.24999999995768
20
-90.000000000000782
10
91.999999999957666
20
-87.188888888909133
10
91.999999999957552
20
87.188888888895917
10
89.249999999957566
20
90.000000000001336
10
54.749999999958199
20
90.000000000016755
42
0.41421356237323292
10
53.749999999957765
20
89.000000000016755
10
53.74999999995736
20
86.400000000082358
42
-0.99999999999999989
10
46.249999999957375
20
86.400000000082827
0
CIRCLE
5
101
100
AcDbEntity
8
0
100
AcDbCircle
10
-82.350000000042698
20
80.350000000083355
30
0
40
3.6500000000000021
210
0
220
-0
230
1
0
CIRCLE
5
102
100
AcDbEntity
8
0
100
AcDbCircle
10
82.349999999957575
20
80.350000000082588
30
0
40
3.6500000000000021
210
0
220
-0
230
1
0
CIRCLE
5
103
100
AcDbEntity
8
0
100
AcDbCircle
10
-4.290377929471057e-11
20
-80.349999999999227
30
0
40
3.6499999999999995
210
0
220
-0
230
1
0
ENDSEC
0
SECTION
2
OBJECTS
0
DICTIONARY
5
C
100
AcDbDictionary
3
ACAD_GROUP
350
D
3
ACAD_MLINESTYLE
350
17
0
DICTIONARY
5
D
100
AcDbDictionary
0
DICTIONARY
5
1A
330
C
100
AcDbDictionary
0
DICTIONARY
5
17
100
AcDbDictionary
0
ENDSEC
0
EOF
