0
SECTION
2
HEADER
9
$INSUNITS
70
4
9
$ACADVER
1
AC1014
9
$HANDSEED
5
FFFF
0
ENDSEC
0
SECTION
2
TABLES
0
TABLE
2
VPORT
5
8
100
AcDbSymbolTable
0
ENDTAB
0
TABLE
2
LTYPE
5
5
100
AcDbSymbolTable
0
LTYPE
5
14
100
AcDbSymbolTableRecord
100
AcDbLinetypeTableRecord
2
BYBLOCK
70
0
0
LTYPE
5
15
100
AcDbSymbolTableRecord
100
AcDbLinetypeTableRecord
2
BYLAYER
70
0
0
ENDTAB
0
TABLE
2
LAYER
5
2
100
AcDbSymbolTable
70
2
0
LAYER
5
50
100
AcDbSymbolTableRecord
100
AcDbLayerTableRecord
2
0
70
0
6
CONTINUOUS
0
ENDTAB
0
TABLE
2
STYLE
5
3
100
AcDbSymbolTable
70
1
0
STYLE
5
11
100
AcDbSymbolTableRecord
100
AcDbTextStyleTableRecord
2
STANDARD
70
0
0
ENDTAB
0
TABLE
2
VIEW
5
6
100
AcDbSymbolTable
70
0
0
ENDTAB
0
TABLE
2
UCS
5
7
100
AcDbSymbolTable
70
0
0
ENDTAB
0
TABLE
2
APPID
5
9
100
AcDbSymbolTable
70
2
0
APPID
5
12
100
AcDbSymbolTableRecord
100
AcDbRegAppTableRecord
2
ACAD
70
0
0
ENDTAB
0
TABLE
2
DIMSTYLE
5
A
100
AcDbSymbolTable
70
1
0
ENDTAB
0
TABLE
2
BLOCK_RECORD
5
1
100
AcDbSymbolTable
70
1
0
BLOCK_RECORD
5
1F
100
AcDbSymbolTableRecord
100
AcDbBlockTableRecord
2
*MODEL_SPACE
0
BLOCK_RECORD
5
1B
100
AcDbSymbolTableRecord
100
AcDbBlockTableRecord
2
*PAPER_SPACE
0
ENDTAB
0
ENDSEC
0
SECTION
2
BLOCKS
0
BLOCK
5
20
100
AcDbEntity
100
AcDbBlockBegin
2
*MODEL_SPACE
0
ENDBLK
5
21
100
AcDbEntity
100
AcDbBlockEnd
0
BLOCK
5
1C
100
AcDbEntity
100
AcDbBlockBegin
2
*PAPER_SPACE
0
ENDBLK
5
1D
100
AcDbEntity
100
AcDbBlockEnd
0
ENDSEC
0
SECTION
2
ENTITIES
0
LWPOLYLINE
5
100
100
AcDbEntity
8
0
100
AcDbPolyline
90
58
70
1
43
0.0
10
-40.499999999999986
20
-87.999999999996277
42
0.41421356237309764
10
-39.499999999999993
20
-88.999999999996248
10
-42.999999999999986
20
-88.999999999996248
42
-0.41421356237309764
10
-43.999999999999979
20
-87.999999999996277
10
-43.999999999999986
20
-86.249999999983103
42
0.99999999999999989
10
-55.999999999999986
20
-86.249999999983103
10
-55.999999999999972
20
-87.999999999996277
42
-0.41421356237309764
10
-56.999999999999972
20
-88.999999999996277
10
-88.579262888905262
20
-88.999999999996277
42
-0.20180153597770734
10
-89.294182282640691
20
-88.69920687958269
10
-90.714919393737858
20
-87.246543091829594
42
-0.19602638962528121
10
-91.000000000002444
20
-86.547336212243209
10
-91.000000000002473
20
73.350000000000279
42
-0.41421356237311324
10
-90.000000000002416
20
74.350000000000279
10
-82.350000000000023
20
74.350000000000009
42
0.4142135623730942
10
-76.350000000000037
20
80.34999999999998
10
-76.350000000000009
20
88.000000000003652
42
-0.41421356237309503
10
-75.350000000000009
20
89.000000000003638
10
-56.999999999999964
20
89.000000000003638
42
-0.41421356237309503
10
-55.999999999999957
20
88.000000000003652
10
-55.999999999999943
20
86.25
42
0.99999999999999989
10
-43.999999999999943
20
86.250000000000014
10
-43.999999999999943
20
88.000000000003666
42
-0.41421356237309764
10
-42.999999999999957
20
89.000000000003638
10
42.999999999999915
20
89.000000000003638
42
-0.41421356237309503
10
43.999999999999915
20
88.000000000003652
10
43.999999999999915
20
86.250000000000028
42
0.99999999999999989
10
55.999999999999908
20
86.250000000000014
10
55.999999999999929
20
88.000000000003666
42
-0.41421356237307944
10
56.999999999999922
20
89.000000000003638
10
75.349999999999909
20
89.000000000003638
42
-0.41421356237307944
10
76.349999999999909
20
88.000000000003666
10
76.349999999999994
20
80.350000000000037
42
0.41421356237309503
10
82.349999999999994
20
74.350000000000037
10
89.999999999997442
20
74.350000000000321
42
-0.41421356237311324
10
90.99999999999747
20
73.350000000000335
10
90.999999999997556
20
-86.54733621220835
42
-0.19602638962549934
10
90.714919393732515
20
-87.24654309179526
10
89.294182282599323
20
-88.699206879583187
42
-0.20180153597749034
10
88.579262888864378
20
-88.999999999996277
10
57
20
-88.999999999996248
42
-0.41421356237309764
10
56.000000000000014
20
-87.999999999996277
10
56.000000000000014
20
-86.249999999983075
42
0.99999999999999989
10
44.000000000000014
20
-86.249999999983075
10
44.000000000000014
20
-87.999999999996277
42
-0.41421356237309764
10
43.000000000000007
20
-88.999999999996277
10
7.0000000000000107
20
-88.999999999996277
42
-0.41421356237309598
10
6.0000000000000187
20
-87.999999999996277
10
6.0000000000000178
20
-80.349999999983112
42
0.99999999999999989
10
-5.9999999999999822
20
-80.349999999983112
10
-5.9999999999999751
20
-87.999999999996277
42
-0.41421356237309598
10
-6.9999999999999751
20
-88.999999999996277
10
-16.499999999999986
20
-88.999999999996277
42
0.41421356237309631
10
-15.49999999999998
20
-87.999999999996277
10
-15.49999999999998
20
-67.999999999996263
42
0.41421356237309698
10
-19.499999999999979
20
-63.999999999996263
10
-36.499999999999993
20
-63.999999999996277
42
0.41421356237309764
10
-40.499999999999986
20
-67.999999999996263
0
LINE
5
101
100
AcDbEntity
8
0
100
AcDbLine
10
-39.499999999999993
20
-88.999999999996277
30
0
11
-16.499999999999986
21
-88.999999999996277
31
0
0
ENDSEC
0
SECTION
2
OBJECTS
0
DICTIONARY
5
C
100
AcDbDictionary
3
ACAD_GROUP
350
D
3
ACAD_MLINESTYLE
350
17
0
DICTIONARY
5
D
100
AcDbDictionary
0
DICTIONARY
5
1A
330
C
100
AcDbDictionary
0
DICTIONARY
5
17
100
AcDbDictionary
0
ENDSEC
0
EOF
